{
  "accessors": [
    {
      "bufferView": 2,
      "componentType": 5126,
      "count": 14399,
      "max": [
        1.003640055656433,
        2.10916805267334,
        -0.038501888513565063
      ],
      "min": [
        -1.003640055656433,
        -2.3052480220794678,
        -1.1354440450668335
      ],
      "type": "VEC3"
    },
    {
      "bufferView": 2,
      "byteOffset": 172788,
      "componentType": 5126,
      "count": 14399,
      "max": [
        1.0,
        1.0,
        0.9994269609451294
      ],
      "min": [
        -1.0,
        -0.9999433159828186,
        -0.9998312592506409
      ],
      "type": "VEC3"
    },
    {
      "bufferView": 1,
      "componentType": 5126,
      "count": 14399,
      "max": [
        0.9967511296272278,
        2.802000045776367
      ],
      "min": [
        0.1476479023694992,
        1.1836650371551514
      ],
      "type": "VEC2"
    },
    {
      "bufferView": 0,
      "componentType": 5125,
      "count": 42948,
      "type": "SCALAR"
    },
    {
      "bufferView": 2,
      "byteOffset": 345576,
      "componentType": 5126,
      "count": 415,
      "max": [
        0.6478925943374634,
        0.46287161111831665,
        -0.8914089202880859
      ],
      "min": [
        -0.6478925943374634,
        0.137505903840065,
        -1.0918710231781006
      ],
      "type": "VEC3"
    },
    {
      "bufferView": 2,
      "byteOffset": 350556,
      "componentType": 5126,
      "count": 415,
      "max": [
        0.9016773700714111,
        0.9668902158737183,
        0.917002260684967
      ],
      "min": [
        -0.9016226530075073,
        -0.920293927192688,
        -0.9385181069374084
      ],
      "type": "VEC3"
    },
    {
      "bufferView": 1,
      "byteOffset": 115192,
      "componentType": 5126,
      "count": 415,
      "max": [
        0.9936637878417969,
        1.9906929731369019
      ],
      "min": [
        0.006323882844299078,
        1.0109599828720093
      ],
      "type": "VEC2"
    },
    {
      "bufferView": 0,
      "byteOffset": 171792,
      "componentType": 5125,
      "count": 1968,
      "type": "SCALAR"
    },
    {
      "bufferView": 2,
      "byteOffset": 355536,
      "componentType": 5126,
      "count": 4926,
      "max": [
        0.9975876212120056,
        2.3171908855438232,
        -0.02808629907667637
      ],
      "min": [
        -0.9975878000259399,
        -2.281403064727783,
        -1.1463079452514648
      ],
      "type": "VEC3"
    },
    {
      "bufferView": 2,
      "byteOffset": 414648,
      "componentType": 5126,
      "count": 4926,
      "max": [
        0.9999703168869019,
        0.9999656081199646,
        0.9908509254455566
      ],
      "min": [
        -0.9999702572822571,
        -0.9999217391014099,
        -0.9990279078483582
      ],
      "type": "VEC3"
    },
    {
      "bufferView": 1,
      "byteOffset": 118512,
      "componentType": 5126,
      "count": 4926,
      "max": [
        0.9854208827018738,
        1.9804970026016235
      ],
      "min": [
        -0.009342649951577187,
        1.0243370532989502
      ],
      "type": "VEC2"
    },
    {
      "bufferView": 0,
      "byteOffset": 179664,
      "componentType": 5125,
      "count": 14304,
      "type": "SCALAR"
    },
    {
      "bufferView": 2,
      "byteOffset": 473760,
      "componentType": 5126,
      "count": 368,
      "max": [
        0.9394940733909607,
        2.195199966430664,
        -0.025100000202655792
      ],
      "min": [
        -0.9394940733909607,
        -1.068647027015686,
        -0.950388491153717
      ],
      "type": "VEC3"
    },
    {
      "bufferView": 2,
      "byteOffset": 478176,
      "componentType": 5126,
      "count": 368,
      "max": [
        0.9136830568313599,
        0.9977076053619385,
        0.06954656541347504
      ],
      "min": [
        -0.9137016534805298,
        -0.12509329617023468,
        -0.7934268712997437
      ],
      "type": "VEC3"
    },
    {
      "bufferView": 1,
      "byteOffset": 157920,
      "componentType": 5126,
      "count": 368,
      "max": [
        67.7959976196289,
        18.18507957458496
      ],
      "min": [
        -80.01460266113281,
        -28.552400588989258
      ],
      "type": "VEC2"
    },
    {
      "bufferView": 0,
      "byteOffset": 236880,
      "componentType": 5125,
      "count": 1050,
      "type": "SCALAR"
    },
    {
      "bufferView": 2,
      "byteOffset": 482592,
      "componentType": 5126,
      "count": 4840,
      "max": [
        1.0113799571990967,
        1.5714900493621826,
        0.08153408765792847
      ],
      "min": [
        -1.011430025100708,
        -1.648800015449524,
        -0.6293470859527588
      ],
      "type": "VEC3"
    },
    {
      "bufferView": 2,
      "byteOffset": 540672,
      "componentType": 5126,
      "count": 4840,
      "max": [
        0.9974377751350403,
        0.9998026490211487,
        0.9997921586036682
      ],
      "min": [
        -0.9974387288093567,
        -0.9998009204864502,
        -0.9998027682304382
      ],
      "type": "VEC3"
    },
    {
      "bufferView": 1,
      "byteOffset": 160864,
      "componentType": 5126,
      "count": 4840,
      "max": [
        1.0,
        1.9940234422683716
      ],
      "min": [
        0.0,
        0.2367858588695526
      ],
      "type": "VEC2"
    },
    {
      "bufferView": 0,
      "byteOffset": 241080,
      "componentType": 5125,
      "count": 24480,
      "type": "SCALAR"
    },
    {
      "bufferView": 2,
      "byteOffset": 598752,
      "componentType": 5126,
      "count": 37738,
      "max": [
        1.011423945426941,
        1.4771499633789063,
        -0.012813610024750233
      ],
      "min": [
        -1.011667013168335,
        -1.5446749925613403,
        -0.5249146819114685
      ],
      "type": "VEC3"
    },
    {
      "bufferView": 2,
      "byteOffset": 1051608,
      "componentType": 5126,
      "count": 37738,
      "max": [
        1.0,
        1.0,
        1.0
      ],
      "min": [
        -1.0,
        -1.0,
        -1.0
      ],
      "type": "VEC3"
    },
    {
      "bufferView": 1,
      "byteOffset": 199584,
      "componentType": 5126,
      "count": 37738,
      "max": [
        0.9965658187866211,
        1.9959039688110352
      ],
      "min": [
        0.0,
        0.0
      ],
      "type": "VEC2"
    },
    {
      "bufferView": 0,
      "byteOffset": 339000,
      "componentType": 5125,
      "count": 139248,
      "type": "SCALAR"
    },
    {
      "bufferView": 2,
      "byteOffset": 1504464,
      "componentType": 5126,
      "count": 100,
      "max": [
        0.8782392144203186,
        0.6235005855560303,
        -0.16349950432777405
      ],
      "min": [
        -0.8782392144203186,
        0.01019951980561018,
        -0.6327999830245972
      ],
      "type": "VEC3"
    },
    {
      "bufferView": 2,
      "byteOffset": 1505664,
      "componentType": 5126,
      "count": 100,
      "max": [
        0.9999335408210754,
        0.013602733612060547,
        0.15752452611923218
      ],
      "min": [
        -0.9999335408210754,
        -0.026891585439443588,
        -0.4506297707557678
      ],
      "type": "VEC3"
    },
    {
      "bufferView": 1,
      "byteOffset": 501488,
      "componentType": 5126,
      "count": 100,
      "max": [
        0.9966019988059998,
        1.900033950805664
      ],
      "min": [
        0.002822350012138486,
        1.1313509941101074
      ],
      "type": "VEC2"
    },
    {
      "bufferView": 0,
      "byteOffset": 895992,
      "componentType": 5125,
      "count": 432,
      "type": "SCALAR"
    },
    {
      "bufferView": 2,
      "byteOffset": 1506864,
      "componentType": 5126,
      "count": 1165,
      "max": [
        0.494255006313324,
        2.195499897003174,
        -0.028612099587917328
      ],
      "min": [
        -0.494255006313324,
        2.107379913330078,
        -0.2207449972629547
      ],
      "type": "VEC3"
    },
    {
      "bufferView": 2,
      "byteOffset": 1520844,
      "componentType": 5126,
      "count": 1165,
      "max": [
        1.0,
        0.9972414374351501,
        0.996725857257843
      ],
      "min": [
        -1.0,
        -0.3379947245121002,
        -0.9967271685600281
      ],
      "type": "VEC3"
    },
    {
      "bufferView": 1,
      "byteOffset": 502288,
      "componentType": 5126,
      "count": 1165,
      "max": [
        0.9928730130195618,
        1.9926029443740845
      ],
      "min": [
        0.0049440898001194,
        1.210191011428833
      ],
      "type": "VEC2"
    },
    {
      "bufferView": 0,
      "byteOffset": 897720,
      "componentType": 5125,
      "count": 5346,
      "type": "SCALAR"
    },
    {
      "bufferView": 2,
      "byteOffset": 1534824,
      "componentType": 5126,
      "count": 65534,
      "max": [
        0.8726860880851746,
        2.214747905731201,
        0.014399999752640724
      ],
      "min": [
        -0.8726860880851746,
        -2.308851957321167,
        -1.5971390008926392
      ],
      "type": "VEC3"
    },
    {
      "bufferView": 2,
      "byteOffset": 2321232,
      "componentType": 5126,
      "count": 65534,
      "max": [
        1.0,
        1.0,
        1.0
      ],
      "min": [
        -1.0,
        -1.0,
        -1.0
      ],
      "type": "VEC3"
    },
    {
      "bufferView": 1,
      "byteOffset": 511608,
      "componentType": 5126,
      "count": 65534,
      "max": [
        256.0657958984375,
        1335.2979736328125
      ],
      "min": [
        -3.4130799770355225,
        -3.258512020111084
      ],
      "type": "VEC2"
    },
    {
      "bufferView": 0,
      "byteOffset": 919104,
      "componentType": 5125,
      "count": 226386,
      "type": "SCALAR"
    },
    {
      "bufferView": 2,
      "byteOffset": 3107640,
      "componentType": 5126,
      "count": 65532,
      "max": [
        1.0234999656677246,
        2.3303000926971436,
        0.016499999910593033
      ],
      "min": [
        -1.0234999656677246,
        -2.3262999057769775,
        -1.4653600454330444
      ],
      "type": "VEC3"
    },
    {
      "bufferView": 2,
      "byteOffset": 3894024,
      "componentType": 5126,
      "count": 65532,
      "max": [
        1.0,
        1.0,
        1.0
      ],
      "min": [
        -1.0,
        -1.0,
        -1.0
      ],
      "type": "VEC3"
    },
    {
      "bufferView": 1,
      "byteOffset": 1035880,
      "componentType": 5126,
      "count": 65532,
      "max": [
        594.719970703125,
        2598.659912109375
      ],
      "min": [
        -0.0015485270414501429,
        1.004065990447998
      ],
      "type": "VEC2"
    },
    {
      "bufferView": 0,
      "byteOffset": 1824648,
      "componentType": 5125,
      "count": 205254,
      "type": "SCALAR"
    },
    {
      "bufferView": 2,
      "byteOffset": 4680408,
      "componentType": 5126,
      "count": 32238,
      "max": [
        0.872393012046814,
        0.8841018080711365,
        0.0034397218842059374
      ],
      "min": [
        -0.8723934292793274,
        -1.1758990287780762,
        -1.0843230485916138
      ],
      "type": "VEC3"
    },
    {
      "bufferView": 2,
      "byteOffset": 5067264,
      "componentType": 5126,
      "count": 32238,
      "max": [
        1.0,
        1.0,
        1.0
      ],
      "min": [
        -1.0,
        -1.0,
        -1.0
      ],
      "type": "VEC3"
    },
    {
      "bufferView": 1,
      "byteOffset": 1560136,
      "componentType": 5126,
      "count": 32238,
      "max": [
        128.58309936523438,
        240.8096923828125
      ],
      "min": [
        -10.604640007019043,
        0.9989383220672607
      ],
      "type": "VEC2"
    },
    {
      "bufferView": 0,
      "byteOffset": 2645664,
      "componentType": 5125,
      "count": 114753,
      "type": "SCALAR"
    },
    {
      "bufferView": 2,
      "byteOffset": 5454120,
      "componentType": 5126,
      "count": 1607,
      "max": [
        0.7649999856948853,
        1.6289000511169434,
        -0.5357000231742859
      ],
      "min": [
        -0.7649999856948853,
        -2.1492459774017334,
        -0.6049172282218933
      ],
      "type": "VEC3"
    },
    {
      "bufferView": 2,
      "byteOffset": 5473404,
      "componentType": 5126,
      "count": 1607,
      "max": [
        1.0,
        1.0,
        1.0
      ],
      "min": [
        -1.0,
        -1.0,
        -1.0
      ],
      "type": "VEC3"
    },
    {
      "bufferView": 1,
      "byteOffset": 1818040,
      "componentType": 5126,
      "count": 1607,
      "max": [
        0.8931999802589417,
        2.998800039291382
      ],
      "min": [
        0.010700000450015068,
        1.0804630517959595
      ],
      "type": "VEC2"
    },
    {
      "bufferView": 0,
      "byteOffset": 3104676,
      "componentType": 5125,
      "count": 5454,
      "type": "SCALAR"
    },
    {
      "bufferView": 2,
      "byteOffset": 5492688,
      "componentType": 5126,
      "count": 564,
      "max": [
        0.8057000041007996,
        1.6766999959945679,
        -0.4720880091190338
      ],
      "min": [
        -0.8057000041007996,
        1.5907000303268433,
        -0.623199999332428
      ],
      "type": "VEC3"
    },
    {
      "bufferView": 2,
      "byteOffset": 5499456,
      "componentType": 5126,
      "count": 564,
      "max": [
        0.9820593595504761,
        0.9795727133750916,
        0.8556729555130005
      ],
      "min": [
        -0.9820638298988342,
        0.11279436200857162,
        -0.8974727392196655
      ],
      "type": "VEC3"
    },
    {
      "bufferView": 1,
      "byteOffset": 1830896,
      "componentType": 5126,
      "count": 564,
      "max": [
        0.9776999950408936,
        2.994800090789795
      ],
      "min": [
        0.005200000014156103,
        2.0088999271392822
      ],
      "type": "VEC2"
    },
    {
      "bufferView": 0,
      "byteOffset": 3126492,
      "componentType": 5125,
      "count": 2160,
      "type": "SCALAR"
    },
    {
      "bufferView": 2,
      "byteOffset": 5506224,
      "componentType": 5126,
      "count": 116,
      "max": [
        1.0092109441757202,
        0.38650068640708923,
        -0.7394459843635559
      ],
      "min": [
        -1.0092109441757202,
        0.3238745927810669,
        -0.8306795954704285
      ],
      "type": "VEC3"
    },
    {
      "bufferView": 2,
      "byteOffset": 5507616,
      "componentType": 5126,
      "count": 116,
      "max": [
        0.3477582633495331,
        -0.9375777840614319,
        0.00012941349996253848
      ],
      "min": [
        -0.34777596592903137,
        -0.9376397132873535,
        -0.0001573197660036385
      ],
      "type": "VEC3"
    },
    {
      "bufferView": 1,
      "byteOffset": 1835408,
      "componentType": 5126,
      "count": 116,
      "max": [
        0.9839251041412354,
        1.8558930158615112
      ],
      "min": [
        0.023334579542279243,
        1.0661770105361938
      ],
      "type": "VEC2"
    },
    {
      "bufferView": 0,
      "byteOffset": 3135132,
      "componentType": 5125,
      "count": 336,
      "type": "SCALAR"
    },
    {
      "bufferView": 2,
      "byteOffset": 5509008,
      "componentType": 5126,
      "count": 422,
      "max": [
        -0.2136061042547226,
        2.228264093399048,
        -0.31573620438575745
      ],
      "min": [
        -0.3766356110572815,
        -2.329200029373169,
        -0.32350000739097595
      ],
      "type": "VEC3"
    },
    {
      "bufferView": 2,
      "byteOffset": 5514072,
      "componentType": 5126,
      "count": 422,
      "max": [
        0.9998995065689087,
        1.0,
        1.0
      ],
      "min": [
        -0.9999008178710938,
        -1.0,
        -1.0
      ],
      "type": "VEC3"
    },
    {
      "bufferView": 1,
      "byteOffset": 1836336,
      "componentType": 5126,
      "count": 422,
      "max": [
        3.344599962234497,
        19.609800338745117
      ],
      "min": [
        2.766400098800659,
        12.222020149230957
      ],
      "type": "VEC2"
    },
    {
      "bufferView": 0,
      "byteOffset": 3136476,
      "componentType": 5125,
      "count": 1524,
      "type": "SCALAR"
    },
    {
      "bufferView": 2,
      "byteOffset": 5519136,
      "componentType": 5126,
      "count": 2505,
      "max": [
        0.5793250203132629,
        -1.3847700357437134,
        -0.12264899909496307
      ],
      "min": [
        -0.5793250203132629,
        -2.3251700401306152,
        -0.3770110011100769
      ],
      "type": "VEC3"
    },
    {
      "bufferView": 2,
      "byteOffset": 5549196,
      "componentType": 5126,
      "count": 2505,
      "max": [
        1.0,
        1.0,
        0.9999903440475464
      ],
      "min": [
        -1.0,
        -1.0,
        -0.9999910593032837
      ],
      "type": "VEC3"
    },
    {
      "bufferView": 1,
      "byteOffset": 1839712,
      "componentType": 5126,
      "count": 2505,
      "max": [
        298.5596923828125,
        599.5689086914063
      ],
      "min": [
        0.7601699829101563,
        300.8684997558594
      ],
      "type": "VEC2"
    },
    {
      "bufferView": 0,
      "byteOffset": 3142572,
      "componentType": 5125,
      "count": 9936,
      "type": "SCALAR"
    },
    {
      "bufferView": 2,
      "byteOffset": 5579256,
      "componentType": 5126,
      "count": 1156,
      "max": [
        0.9233075976371765,
        1.1578350067138672,
        -0.0670657530426979
      ],
      "min": [
        -0.9233071804046631,
        -1.1761770248413086,
        -0.39196550846099854
      ],
      "type": "VEC3"
    },
    {
      "bufferView": 2,
      "byteOffset": 5593128,
      "componentType": 5126,
      "count": 1156,
      "max": [
        1.0,
        0.9991919994354248,
        0.999822199344635
      ],
      "min": [
        -1.0,
        -0.9996116757392883,
        -0.9999038577079773
      ],
      "type": "VEC3"
    },
    {
      "bufferView": 1,
      "byteOffset": 1859752,
      "componentType": 5126,
      "count": 1156,
      "max": [
        54.88520812988281,
        109.64350128173828
      ],
      "min": [
        0.23312829434871674,
        55.423439025878906
      ],
      "type": "VEC2"
    },
    {
      "bufferView": 0,
      "byteOffset": 3182316,
      "componentType": 5125,
      "count": 5004,
      "type": "SCALAR"
    },
    {
      "bufferView": 2,
      "byteOffset": 5607000,
      "componentType": 5126,
      "count": 1608,
      "max": [
        0.8740028738975525,
        1.4205759763717651,
        -0.06936968863010406
      ],
      "min": [
        -0.8740180730819702,
        -1.484563946723938,
        -0.4651119112968445
      ],
      "type": "VEC3"
    },
    {
      "bufferView": 2,
      "byteOffset": 5626296,
      "componentType": 5126,
      "count": 1608,
      "max": [
        1.0,
        1.0,
        1.0
      ],
      "min": [
        -1.0,
        -1.0,
        -1.0
      ],
      "type": "VEC3"
    },
    {
      "bufferView": 1,
      "byteOffset": 1869000,
      "componentType": 5126,
      "count": 1608,
      "max": [
        0.9999998211860657,
        2.0
      ],
      "min": [
        -1.1920930376163597e-07,
        1.0
      ],
      "type": "VEC2"
    },
    {
      "bufferView": 0,
      "byteOffset": 3202332,
      "componentType": 5125,
      "count": 3840,
      "type": "SCALAR"
    },
    {
      "bufferView": 2,
      "byteOffset": 5645592,
      "componentType": 5126,
      "count": 65533,
      "max": [
        1.023800015449524,
        2.081399917602539,
        0.015300000086426735
      ],
      "min": [
        -1.023800015449524,
        -2.4214000701904297,
        -1.149999976158142
      ],
      "type": "VEC3"
    },
    {
      "bufferView": 2,
      "byteOffset": 6431988,
      "componentType": 5126,
      "count": 65533,
      "max": [
        1.0,
        0.9999920725822449,
        1.0
      ],
      "min": [
        -1.0,
        -1.0,
        -1.0
      ],
      "type": "VEC3"
    },
    {
      "bufferView": 1,
      "byteOffset": 1881864,
      "componentType": 5126,
      "count": 65533,
      "max": [
        0.9872999787330627,
        2.8615000247955322
      ],
      "min": [
        0.019200000911951065,
        1.1546000242233276
      ],
      "type": "VEC2"
    },
    {
      "bufferView": 0,
      "byteOffset": 3217692,
      "componentType": 5125,
      "count": 65976,
      "type": "SCALAR"
    },
    {
      "bufferView": 2,
      "byteOffset": 7218384,
      "componentType": 5126,
      "count": 37686,
      "max": [
        1.0211000442504883,
        2.2346999645233154,
        -0.026100000366568565
      ],
      "min": [
        -1.021299958229065,
        -2.252500057220459,
        -1.1519999504089355
      ],
      "type": "VEC3"
    },
    {
      "bufferView": 2,
      "byteOffset": 7670616,
      "componentType": 5126,
      "count": 37686,
      "max": [
        1.0,
        0.9999697208404541,
        1.0
      ],
      "min": [
        -1.0,
        -0.9999995231628418,
        -1.0
      ],
      "type": "VEC3"
    },
    {
      "bufferView": 1,
      "byteOffset": 2406128,
      "componentType": 5126,
      "count": 37686,
      "max": [
        0.9380000233650208,
        2.655900001525879
      ],
      "min": [
        0.026100000366568565,
        1.3489999771118164
      ],
      "type": "VEC2"
    },
    {
      "bufferView": 0,
      "byteOffset": 3481596,
      "componentType": 5125,
      "count": 37686,
      "type": "SCALAR"
    },
    {
      "bufferView": 2,
      "byteOffset": 8122848,
      "componentType": 5126,
      "count": 840,
      "max": [
        0.7925000190734863,
        1.6603000164031982,
        -0.48420000076293945
      ],
      "min": [
        -0.7925000190734863,
        1.6168999671936035,
        -0.621999979019165
      ],
      "type": "VEC3"
    },
    {
      "bufferView": 2,
      "byteOffset": 8132928,
      "componentType": 5126,
      "count": 840,
      "max": [
        1.0,
        1.0,
        0.9927162528038025
      ],
      "min": [
        -1.0,
        -4.509099198912736e-06,
        -0.9927168488502502
      ],
      "type": "VEC3"
    },
    {
      "bufferView": 1,
      "byteOffset": 2707616,
      "componentType": 5126,
      "count": 840,
      "max": [
        0.274399995803833,
        2.6261000633239746
      ],
      "min": [
        0.012600000016391277,
        2.238600015640259
      ],
      "type": "VEC2"
    },
    {
      "bufferView": 0,
      "byteOffset": 3632340,
      "componentType": 5125,
      "count": 4368,
      "type": "SCALAR"
    },
    {
      "bufferView": 2,
      "byteOffset": 8143008,
      "componentType": 5126,
      "count": 1247,
      "max": [
        0.8325533270835876,
        -1.74782395362854,
        -0.5337221026420593
      ],
      "min": [
        -0.8325533270835876,
        -2.196352958679199,
        -0.6927810907363892
      ],
      "type": "VEC3"
    },
    {
      "bufferView": 2,
      "byteOffset": 8157972,
      "componentType": 5126,
      "count": 1247,
      "max": [
        0.9970330595970154,
        0.3184756934642792,
        0.9994977712631226
      ],
      "min": [
        -0.9970332384109497,
        -1.0,
        -0.999998152256012
      ],
      "type": "VEC3"
    },
    {
      "bufferView": 1,
      "byteOffset": 2714336,
      "componentType": 5126,
      "count": 1247,
      "max": [
        0.9858152270317078,
        1.8042030334472656
      ],
      "min": [
        0.26503491401672363,
        1.0918359756469727
      ],
      "type": "VEC2"
    },
    {
      "bufferView": 0,
      "byteOffset": 3649812,
      "componentType": 5125,
      "count": 6396,
      "type": "SCALAR"
    },
    {
      "bufferView": 2,
      "byteOffset": 8172936,
      "componentType": 5126,
      "count": 2231,
      "max": [
        0.8351997137069702,
        1.901505947113037,
        -0.43071261048316956
      ],
      "min": [
        -0.8351994156837463,
        -0.5946285128593445,
        -1.0901570320129395
      ],
      "type": "VEC3"
    },
    {
      "bufferView": 2,
      "byteOffset": 8199708,
      "componentType": 5126,
      "count": 2231,
      "max": [
        0.9523382186889648,
        0.9982348084449768,
        0.9528448581695557
      ],
      "min": [
        -0.952338695526123,
        -0.9535728096961975,
        -0.9825019836425781
      ],
      "type": "VEC3"
    },
    {
      "bufferView": 1,
      "byteOffset": 2724312,
      "componentType": 5126,
      "count": 2231,
      "max": [
        72.2585678100586,
        68.11447143554688
      ],
      "min": [
        0.005911306012421846,
        1.0129849910736084
      ],
      "type": "VEC2"
    },
    {
      "bufferView": 0,
      "byteOffset": 3675396,
      "componentType": 5125,
      "count": 10140,
      "type": "SCALAR"
    },
    {
      "bufferView": 2,
      "byteOffset": 8226480,
      "componentType": 5126,
      "count": 744,
      "max": [
        0.8330392241477966,
        -1.7477179765701294,
        -0.5332751870155334
      ],
      "min": [
        -0.8330385088920593,
        -2.1967580318450928,
        -0.6335489153862
      ],
      "type": "VEC3"
    },
    {
      "bufferView": 2,
      "byteOffset": 8235408,
      "componentType": 5126,
      "count": 744,
      "max": [
        0.9933010339736938,
        0.29260510206222534,
        0.906377375125885
      ],
      "min": [
        -0.9933009147644043,
        -0.9927352070808411,
        -0.9923099875450134
      ],
      "type": "VEC3"
    },
    {
      "bufferView": 1,
      "byteOffset": 2742160,
      "componentType": 5126,
      "count": 744,
      "max": [
        0.990749716758728,
        1.1678119897842407
      ],
      "min": [
        0.3840751051902771,
        1.018159031867981
      ],
      "type": "VEC2"
    },
    {
      "bufferView": 0,
      "byteOffset": 3715956,
      "componentType": 5125,
      "count": 3486,
      "type": "SCALAR"
    },
    {
      "bufferView": 2,
      "byteOffset": 8244336,
      "componentType": 5126,
      "count": 66,
      "max": [
        0.7467334866523743,
        -1.9327820539474487,
        -0.5705382823944092
      ],
      "min": [
        -0.746732771396637,
        -2.1491620540618896,
        -0.6041055917739868
      ],
      "type": "VEC3"
    },
    {
      "bufferView": 2,
      "byteOffset": 8245128,
      "componentType": 5126,
      "count": 66,
      "max": [
        0.7308456897735596,
        -0.5007947087287903,
        -0.35459446907043457
      ],
      "min": [
        -0.7390819191932678,
        -0.8854193687438965,
        -0.4899649918079376
      ],
      "type": "VEC3"
    },
    {
      "bufferView": 1,
      "byteOffset": 2748112,
      "componentType": 5126,
      "count": 66,
      "max": [
        0.9276766180992126,
        1.12910795211792
      ],
      "min": [
        0.44723451137542725,
        1.0656919479370117
      ],
      "type": "VEC2"
    },
    {
      "bufferView": 0,
      "byteOffset": 3729900,
      "componentType": 5125,
      "count": 186,
      "type": "SCALAR"
    }
  ],
  "asset": {
    "extras": {
      "author": "Amerbiy (https://sketchfab.com/amerbi202)",
      "license": "CC-BY-4.0 (http://creativecommons.org/licenses/by/4.0/)",
      "source": "https://sketchfab.com/3d-models/porsche-911-rsr-2018-9b74e7b3348149df9835e4a302d955e6",
      "title": "Porsche 911 RSR (2018)"
    },
    "generator": "Sketchfab-16.59.0",
    "version": "2.0"
  },
  "bufferViews": [
    {
      "buffer": 0,
      "byteLength": 3730644,
      "name": "floatBufferViews",
      "target": 34963
    },
    {
      "buffer": 0,
      "byteLength": 2748640,
      "byteOffset": 3730644,
      "byteStride": 8,
      "name": "floatBufferViews",
      "target": 34962
    },
    {
      "buffer": 0,
      "byteLength": 8245920,
      "byteOffset": 6479284,
      "byteStride": 12,
      "name": "floatBufferViews",
      "target": 34962
    }
  ],
  "buffers": [
    {
      "byteLength": 14725204,
      "uri": "scene.bin"
    }
  ],
  "extensionsUsed": [
    "KHR_materials_specular"
  ],
  "images": [
    {
      "uri": "textures/EXT_Mechanics_baseColor.png"
    },
    {
      "uri": "textures/EXT_BANNER_baseColor.png"
    },
    {
      "uri": "textures/EXT_Logos_baseColor.png"
    },
    {
      "uri": "textures/EXT_GRID_baseColor.png"
    },
    {
      "uri": "textures/twall_baseColor.png"
    },
    {
      "uri": "textures/carnumber_baseColor.png"
    },
    {
      "uri": "textures/airblock_baseColor.png"
    },
    {
      "uri": "textures/EXT_Carpaint.001_baseColor.png"
    }
  ],
  "materials": [
    {
      "alphaMode": "BLEND",
      "doubleSided": true,
      "extensions": {
        "KHR_materials_specular": {
          "specularColorFactor": [
            1.0,
            1.0,
            1.0
          ],
          "specularFactor": 0.0
        }
      },
      "name": "EXT_Mechanics",
      "pbrMetallicRoughness": {
        "baseColorTexture": {
          "index": 0
        },
        "metallicFactor": 0.0
      }
    },
    {
      "doubleSided": true,
      "extensions": {
        "KHR_materials_specular": {
          "specularColorFactor": [
            1.0,
            1.0,
            1.0
          ],
          "specularFactor": 0.0
        }
      },
      "name": "EXT_BANNER",
      "pbrMetallicRoughness": {
        "baseColorTexture": {
          "index": 1
        },
        "metallicFactor": 0.0
      }
    },
    {
      "alphaMode": "BLEND",
      "doubleSided": true,
      "extensions": {
        "KHR_materials_specular": {
          "specularColorFactor": [
            1.0,
            1.0,
            1.0
          ],
          "specularFactor": 0.0
        }
      },
      "name": "EXT_Logos",
      "pbrMetallicRoughness": {
        "baseColorTexture": {
          "index": 2
        },
        "metallicFactor": 0.0
      }
    },
    {
      "doubleSided": true,
      "extensions": {
        "KHR_materials_specular": {
          "specularColorFactor": [
            1.0,
            1.0,
            1.0
          ],
          "specularFactor": 0.0
        }
      },
      "name": "EXT_GRID",
      "pbrMetallicRoughness": {
        "baseColorTexture": {
          "index": 3
        },
        "metallicFactor": 0.0
      }
    },
    {
      "doubleSided": true,
      "extensions": {
        "KHR_materials_specular": {
          "specularColorFactor": [
            1.0,
            1.0,
            1.0
          ],
          "specularFactor": 0.0
        }
      },
      "name": "twall",
      "pbrMetallicRoughness": {
        "baseColorTexture": {
          "index": 4
        },
        "metallicFactor": 0.5
      }
    },
    {
      "doubleSided": true,
      "extensions": {
        "KHR_materials_specular": {
          "specularColorFactor": [
            1.0,
            1.0,
            1.0
          ],
          "specularFactor": 0.0
        }
      },
      "name": ".004",
      "pbrMetallicRoughness": {
        "baseColorFactor": [
          0.44672920812723993,
          0.10206724719271237,
          0.0,
          1.0
        ]
      }
    },
    {
      "doubleSided": true,
      "extensions": {
        "KHR_materials_specular": {
          "specularColorFactor": [
            1.0,
            1.0,
            1.0
          ],
          "specularFactor": 0.0
        }
      },
      "name": "carnumber",
      "pbrMetallicRoughness": {
        "baseColorTexture": {
          "index": 5
        },
        "metallicFactor": 0.0
      }
    },
    {
      "doubleSided": true,
      "extensions": {
        "KHR_materials_specular": {
          "specularColorFactor": [
            1.0,
            1.0,
            1.0
          ],
          "specularFactor": 0.0
        }
      },
      "name": "airblock",
      "pbrMetallicRoughness": {
        "baseColorTexture": {
          "index": 6
        },
        "metallicFactor": 0.0
      }
    },
    {
      "doubleSided": true,
      "extensions": {
        "KHR_materials_specular": {
          "specularColorFactor": [
            1.0,
            1.0,
            1.0
          ],
          "specularFactor": 0.0
        }
      },
      "name": "material",
      "pbrMetallicRoughness": {
        "baseColorFactor": [
          0.005,
          0.005,
          0.005,
          1.0
        ],
        "metallicFactor": 0.0
      }
    },
    {
      "doubleSided": true,
      "name": ".011",
      "pbrMetallicRoughness": {
        "metallicFactor": 0.75
      }
    },
    {
      "doubleSided": true,
      "name": ".009",
      "pbrMetallicRoughness": {
        "baseColorFactor": [
          0.5,
          0.5,
          0.5,
          1.0
        ]
      }
    },
    {
      "doubleSided": true,
      "extensions": {
        "KHR_materials_specular": {
          "specularColorFactor": [
            1.0,
            1.0,
            1.0
          ],
          "specularFactor": 0.0
        }
      },
      "name": ".001"
    },
    {
      "doubleSided": true,
      "extensions": {
        "KHR_materials_specular": {
          "specularColorFactor": [
            1.0,
            1.0,
            1.0
          ],
          "specularFactor": 0.0
        }
      },
      "name": ".003",
      "pbrMetallicRoughness": {
        "baseColorFactor": [
          0.25,
          0.0,
          0.0,
          1.0
        ]
      }
    },
    {
      "doubleSided": true,
      "extensions": {
        "KHR_materials_specular": {
          "specularColorFactor": [
            1.0,
            1.0,
            1.0
          ],
          "specularFactor": 0.0
        }
      },
      "name": ".002",
      "pbrMetallicRoughness": {
        "baseColorFactor": [
          0.025,
          0.025,
          0.025,
          1.0
        ],
        "metallicFactor": 0.0
      }
    },
    {
      "doubleSided": true,
      "extensions": {
        "KHR_materials_specular": {
          "specularColorFactor": [
            1.0,
            1.0,
            1.0
          ],
          "specularFactor": 0.15
        }
      },
      "name": ".005",
      "pbrMetallicRoughness": {
        "baseColorFactor": [
          0.01,
          0.01,
          0.01,
          1.0
        ]
      }
    },
    {
      "doubleSided": true,
      "extensions": {
        "KHR_materials_specular": {
          "specularColorFactor": [
            1.0,
            1.0,
            1.0
          ],
          "specularFactor": 0.15
        }
      },
      "name": ".006",
      "pbrMetallicRoughness": {
        "baseColorFactor": [
          0.01,
          0.01,
          0.01,
          1.0
        ],
        "metallicFactor": 0.0
      }
    },
    {
      "doubleSided": true,
      "extensions": {
        "KHR_materials_specular": {
          "specularColorFactor": [
            1.0,
            1.0,
            1.0
          ],
          "specularFactor": 0.0
        }
      },
      "name": "EXT_Carpaint.001",
      "pbrMetallicRoughness": {
        "baseColorTexture": {
          "index": 7
        },
        "metallicFactor": 0.0,
        "roughnessFactor": 0.776393
      }
    },
    {
      "doubleSided": true,
      "emissiveFactor": [
        1.0,
        1.0,
        1.0
      ],
      "name": ".008"
    },
    {
      "doubleSided": true,
      "emissiveFactor": [
        0.25,
        0.0,
        0.0
      ],
      "extensions": {
        "KHR_materials_specular": {
          "specularColorFactor": [
            1.0,
            1.0,
            1.0
          ],
          "specularFactor": 0.0
        }
      },
      "name": ".022",
      "pbrMetallicRoughness": {
        "baseColorFactor": [
          0.0,
          0.0,
          0.0,
          1.0
        ],
        "metallicFactor": 0.0
      }
    },
    {
      "doubleSided": true,
      "extensions": {
        "KHR_materials_specular": {
          "specularColorFactor": [
            1.0,
            1.0,
            1.0
          ],
          "specularFactor": 0.1
        }
      },
      "name": ".007",
      "pbrMetallicRoughness": {
        "baseColorFactor": [
          0.01,
          0.01,
          0.01,
          1.0
        ]
      }
    },
    {
      "doubleSided": true,
      "emissiveFactor": [
        0.25,
        0.0,
        0.0
      ],
      "extensions": {
        "KHR_materials_specular": {
          "specularColorFactor": [
            1.0,
            1.0,
            1.0
          ],
          "specularFactor": 0.0
        }
      },
      "name": ".020",
      "pbrMetallicRoughness": {
        "baseColorFactor": [
          0.0,
          0.0,
          0.0,
          1.0
        ],
        "metallicFactor": 0.0
      }
    },
    {
      "doubleSided": true,
      "extensions": {
        "KHR_materials_specular": {
          "specularColorFactor": [
            1.0,
            1.0,
            1.0
          ],
          "specularFactor": 0.0
        }
      },
      "name": ".019",
      "pbrMetallicRoughness": {
        "baseColorFactor": [
          0.25,
          0.25,
          0.25,
          1.0
        ],
        "metallicFactor": 0.0
      }
    }
  ],
  "meshes": [
    {
      "name": "Object_0",
      "primitives": [
        {
          "attributes": {
            "NORMAL": 1,
            "POSITION": 0,
            "TEXCOORD_0": 2
          },
          "indices": 3,
          "material": 0,
          "mode": 4
        }
      ]
    },
    {
      "name": "Object_1",
      "primitives": [
        {
          "attributes": {
            "NORMAL": 5,
            "POSITION": 4,
            "TEXCOORD_0": 6
          },
          "indices": 7,
          "material": 1,
          "mode": 4
        }
      ]
    },
    {
      "name": "Object_2",
      "primitives": [
        {
          "attributes": {
            "NORMAL": 9,
            "POSITION": 8,
            "TEXCOORD_0": 10
          },
          "indices": 11,
          "material": 2,
          "mode": 4
        }
      ]
    },
    {
      "name": "Object_3",
      "primitives": [
        {
          "attributes": {
            "NORMAL": 13,
            "POSITION": 12,
            "TEXCOORD_0": 14
          },
          "indices": 15,
          "material": 3,
          "mode": 4
        }
      ]
    },
    {
      "name": "Object_4",
      "primitives": [
        {
          "attributes": {
            "NORMAL": 17,
            "POSITION": 16,
            "TEXCOORD_0": 18
          },
          "indices": 19,
          "material": 4,
          "mode": 4
        }
      ]
    },
    {
      "name": "Object_5",
      "primitives": [
        {
          "attributes": {
            "NORMAL": 21,
            "POSITION": 20,
            "TEXCOORD_0": 22
          },
          "indices": 23,
          "material": 5,
          "mode": 4
        }
      ]
    },
    {
      "name": "Object_6",
      "primitives": [
        {
          "attributes": {
            "NORMAL": 25,
            "POSITION": 24,
            "TEXCOORD_0": 26
          },
          "indices": 27,
          "material": 6,
          "mode": 4
        }
      ]
    },
    {
      "name": "Object_7",
      "primitives": [
        {
          "attributes": {
            "NORMAL": 29,
            "POSITION": 28,
            "TEXCOORD_0": 30
          },
          "indices": 31,
          "material": 7,
          "mode": 4
        }
      ]
    },
    {
      "name": "Object_8",
      "primitives": [
        {
          "attributes": {
            "NORMAL": 33,
            "POSITION": 32,
            "TEXCOORD_0": 34
          },
          "indices": 35,
          "material": 8,
          "mode": 4
        }
      ]
    },
    {
      "name": "Object_9",
      "primitives": [
        {
          "attributes": {
            "NORMAL": 37,
            "POSITION": 36,
            "TEXCOORD_0": 38
          },
          "indices": 39,
          "material": 8,
          "mode": 4
        }
      ]
    },
    {
      "name": "Object_10",
      "primitives": [
        {
          "attributes": {
            "NORMAL": 41,
            "POSITION": 40,
            "TEXCOORD_0": 42
          },
          "indices": 43,
          "material": 8,
          "mode": 4
        }
      ]
    },
    {
      "name": "Object_11",
      "primitives": [
        {
          "attributes": {
            "NORMAL": 45,
            "POSITION": 44,
            "TEXCOORD_0": 46
          },
          "indices": 47,
          "material": 9,
          "mode": 4
        }
      ]
    },
    {
      "name": "Object_12",
      "primitives": [
        {
          "attributes": {
            "NORMAL": 49,
            "POSITION": 48,
            "TEXCOORD_0": 50
          },
          "indices": 51,
          "material": 10,
          "mode": 4
        }
      ]
    },
    {
      "name": "Object_13",
      "primitives": [
        {
          "attributes": {
            "NORMAL": 53,
            "POSITION": 52,
            "TEXCOORD_0": 54
          },
          "indices": 55,
          "material": 11,
          "mode": 4
        }
      ]
    },
    {
      "name": "Object_14",
      "primitives": [
        {
          "attributes": {
            "NORMAL": 57,
            "POSITION": 56,
            "TEXCOORD_0": 58
          },
          "indices": 59,
          "material": 12,
          "mode": 4
        }
      ]
    },
    {
      "name": "Object_15",
      "primitives": [
        {
          "attributes": {
            "NORMAL": 61,
            "POSITION": 60,
            "TEXCOORD_0": 62
          },
          "indices": 63,
          "material": 13,
          "mode": 4
        }
      ]
    },
    {
      "name": "Object_16",
      "primitives": [
        {
          "attributes": {
            "NORMAL": 65,
            "POSITION": 64,
            "TEXCOORD_0": 66
          },
          "indices": 67,
          "material": 14,
          "mode": 4
        }
      ]
    },
    {
      "name": "Object_17",
      "primitives": [
        {
          "attributes": {
            "NORMAL": 69,
            "POSITION": 68,
            "TEXCOORD_0": 70
          },
          "indices": 71,
          "material": 15,
          "mode": 4
        }
      ]
    },
    {
      "name": "Object_18",
      "primitives": [
        {
          "attributes": {
            "NORMAL": 73,
            "POSITION": 72,
            "TEXCOORD_0": 74
          },
          "indices": 75,
          "material": 16,
          "mode": 4
        }
      ]
    },
    {
      "name": "Object_19",
      "primitives": [
        {
          "attributes": {
            "NORMAL": 77,
            "POSITION": 76,
            "TEXCOORD_0": 78
          },
          "indices": 79,
          "material": 16,
          "mode": 4
        }
      ]
    },
    {
      "name": "Object_20",
      "primitives": [
        {
          "attributes": {
            "NORMAL": 81,
            "POSITION": 80,
            "TEXCOORD_0": 82
          },
          "indices": 83,
          "material": 17,
          "mode": 4
        }
      ]
    },
    {
      "name": "Object_21",
      "primitives": [
        {
          "attributes": {
            "NORMAL": 85,
            "POSITION": 84,
            "TEXCOORD_0": 86
          },
          "indices": 87,
          "material": 18,
          "mode": 4
        }
      ]
    },
    {
      "name": "Object_22",
      "primitives": [
        {
          "attributes": {
            "NORMAL": 89,
            "POSITION": 88,
            "TEXCOORD_0": 90
          },
          "indices": 91,
          "material": 19,
          "mode": 4
        }
      ]
    },
    {
      "name": "Object_23",
      "primitives": [
        {
          "attributes": {
            "NORMAL": 93,
            "POSITION": 92,
            "TEXCOORD_0": 94
          },
          "indices": 95,
          "material": 20,
          "mode": 4
        }
      ]
    },
    {
      "name": "Object_24",
      "primitives": [
        {
          "attributes": {
            "NORMAL": 97,
            "POSITION": 96,
            "TEXCOORD_0": 98
          },
          "indices": 99,
          "material": 21,
          "mode": 4
        }
      ]
    }
  ],
  "nodes": [
    {
      "children": [
        1
      ],
      "matrix": [
        1.0,
        0.0,
        0.0,
        0.0,
        0.0,
        2.220446049250313e-16,
        -1.0,
        0.0,
        0.0,
        1.0,
        2.220446049250313e-16,
        0.0,
        0.0,
        0.0,
        0.0,
        1.0
      ],
      "name": "Sketchfab_model"
    },
    {
      "children": [
        2
      ],
      "name": "root"
    },
    {
      "children": [
        3,
        5,
        7,
        9,
        11,
        14,
        16,
        18,
        29,
        32,
        35
      ],
      "matrix": [
        1.0,
        0.0,
        0.0,
        0.0,
        0.0,
        2.220446049250313e-16,
        1.0,
        0.0,
        0.0,
        -1.0,
        2.220446049250313e-16,
        0.0,
        0.0,
        0.0,
        0.0,
        1.0
      ],
      "name": "GLTF_SceneRootNode"
    },
    {
      "children": [
        4
      ],
      "matrix": [
        1.0,
        0.0,
        0.0,
        0.0,
        0.0,
        -1.685873969314855e-07,
        0.9999999999999858,
        0.0,
        0.0,
        -0.9999999999999858,
        -1.685873969314855e-07,
        0.0,
        0.0,
        0.0,
        0.0,
        1.0
      ],
      "name": "porsche_911_rsr_2018.005_0"
    },
    {
      "mesh": 0,
      "name": "Object_4"
    },
    {
      "children": [
        6
      ],
      "matrix": [
        1.0,
        0.0,
        0.0,
        0.0,
        0.0,
        -1.685873969314855e-07,
        0.9999999999999858,
        0.0,
        0.0,
        -0.9999999999999858,
        -1.685873969314855e-07,
        0.0,
        0.0,
        0.0,
        0.0,
        1.0
      ],
      "name": "porsche_911_rsr_2018.006_1"
    },
    {
      "mesh": 1,
      "name": "Object_6"
    },
    {
      "children": [
        8
      ],
      "matrix": [
        1.0,
        0.0,
        0.0,
        0.0,
        0.0,
        -1.685873969314855e-07,
        0.9999999999999858,
        0.0,
        0.0,
        -0.9999999999999858,
        -1.685873969314855e-07,
        0.0,
        0.0,
        0.0,
        0.0,
        1.0
      ],
      "name": "porsche_911_rsr_2018.008_2"
    },
    {
      "mesh": 2,
      "name": "Object_8"
    },
    {
      "children": [
        10
      ],
      "matrix": [
        1.0,
        0.0,
        0.0,
        0.0,
        0.0,
        -1.685873969314855e-07,
        0.9999999999999858,
        0.0,
        0.0,
        -0.9999999999999858,
        -1.685873969314855e-07,
        0.0,
        0.0,
        0.0,
        0.0,
        1.0
      ],
      "name": "porsche_911_rsr_2018.016_3"
    },
    {
      "mesh": 3,
      "name": "Object_10"
    },
    {
      "children": [
        12,
        13
      ],
      "matrix": [
        1.0,
        0.0,
        0.0,
        0.0,
        0.0,
        -1.685873969314855e-07,
        0.9999999999999858,
        0.0,
        0.0,
        -0.9999999999999858,
        -1.685873969314855e-07,
        0.0,
        0.0,
        0.0,
        0.0,
        1.0
      ],
      "name": "porsche_911_rsr_2018.023_4"
    },
    {
      "mesh": 4,
      "name": "Object_12"
    },
    {
      "mesh": 5,
      "name": "Object_13"
    },
    {
      "children": [
        15
      ],
      "matrix": [
        1.0,
        0.0,
        0.0,
        0.0,
        0.0,
        -1.685873969314855e-07,
        0.9999999999999858,
        0.0,
        0.0,
        -0.9999999999999858,
        -1.685873969314855e-07,
        0.0,
        0.0,
        0.0,
        0.0,
        1.0
      ],
      "name": "porsche_911_rsr_2018.030_5"
    },
    {
      "mesh": 6,
      "name": "Object_15"
    },
    {
      "children": [
        17
      ],
      "matrix": [
        1.0,
        0.0,
        0.0,
        0.0,
        0.0,
        -1.685873969314855e-07,
        0.9999999999999858,
        0.0,
        0.0,
        -0.9999999999999858,
        -1.685873969314855e-07,
        0.0,
        0.0,
        0.0,
        0.0,
        1.0
      ],
      "name": "porsche_911_rsr_2018.075_6"
    },
    {
      "mesh": 7,
      "name": "Object_17"
    },
    {
      "children": [
        19,
        20,
        21,
        22,
        23,
        24,
        25,
        26,
        27,
        28
      ],
      "matrix": [
        1.0,
        0.0,
        0.0,
        0.0,
        0.0,
        -1.685873969314855e-07,
        0.9999999999999858,
        0.0,
        0.0,
        -0.9999999999999858,
        -1.685873969314855e-07,
        0.0,
        0.0,
        0.0,
        0.0,
        1.0
      ],
      "name": "porsche_911_rsr_2018.078_7"
    },
    {
      "mesh": 8,
      "name": "Object_19"
    },
    {
      "mesh": 9,
      "name": "Object_20"
    },
    {
      "mesh": 10,
      "name": "Object_21"
    },
    {
      "mesh": 11,
      "name": "Object_22"
    },
    {
      "mesh": 12,
      "name": "Object_23"
    },
    {
      "mesh": 13,
      "name": "Object_24"
    },
    {
      "mesh": 14,
      "name": "Object_25"
    },
    {
      "mesh": 15,
      "name": "Object_26"
    },
    {
      "mesh": 16,
      "name": "Object_27"
    },
    {
      "mesh": 17,
      "name": "Object_28"
    },
    {
      "children": [
        30,
        31
      ],
      "matrix": [
        1.0,
        0.0,
        0.0,
        0.0,
        0.0,
        -1.685873969314855e-07,
        0.9999999999999858,
        0.0,
        0.0,
        -0.9999999999999858,
        -1.685873969314855e-07,
        0.0,
        0.0,
        0.0,
        0.0,
        1.0
      ],
      "name": "porsche_911_rsr_2018.106_8"
    },
    {
      "mesh": 18,
      "name": "Object_30"
    },
    {
      "mesh": 19,
      "name": "Object_31"
    },
    {
      "children": [
        33,
        34
      ],
      "matrix": [
        1.0,
        0.0,
        0.0,
        0.0,
        0.0,
        -1.685873969314855e-07,
        0.9999999999999858,
        0.0,
        0.0,
        -0.9999999999999858,
        -1.685873969314855e-07,
        0.0,
        0.0,
        0.0,
        0.0,
        1.0
      ],
      "name": "porsche_911_rsr_2018.001_9"
    },
    {
      "mesh": 20,
      "name": "Object_33"
    },
    {
      "mesh": 21,
      "name": "Object_34"
    },
    {
      "children": [
        36,
        37,
        38
      ],
      "matrix": [
        1.0,
        0.0,
        0.0,
        0.0,
        0.0,
        -1.685873969314855e-07,
        0.9999999999999858,
        0.0,
        0.0,
        -0.9999999999999858,
        -1.685873969314855e-07,
        0.0,
        0.0,
        0.0,
        0.0,
        1.0
      ],
      "name": "porsche_911_rsr_2018.002_10"
    },
    {
      "mesh": 22,
      "name": "Object_36"
    },
    {
      "mesh": 23,
      "name": "Object_37"
    },
    {
      "mesh": 24,
      "name": "Object_38"
    }
  ],
  "samplers": [
    {
      "magFilter": 9729,
      "minFilter": 9987,
      "wrapS": 10497,
      "wrapT": 10497
    }
  ],
  "scene": 0,
  "scenes": [
    {
      "name": "Sketchfab_Scene",
      "nodes": [
        0
      ]
    }
  ],
  "textures": [
    {
      "sampler": 0,
      "source": 0
    },
    {
      "sampler": 0,
      "source": 1
    },
    {
      "sampler": 0,
      "source": 2
    },
    {
      "sampler": 0,
      "source": 3
    },
    {
      "sampler": 0,
      "source": 4
    },
    {
      "sampler": 0,
      "source": 5
    },
    {
      "sampler": 0,
      "source": 6
    },
    {
      "sampler": 0,
      "source": 7
    }
  ]
}
